# MagicaVoxel @ Ephtracy

# group
o 

# material
mtllib board.mtl
usemtl palette

# normals
vn -1 0 0
vn 1 0 0
vn 0 0 1
vn 0 0 -1
vn 0 -1 0
vn 0 1 0

# texcoords
vt 0.560547 0.5
vt 0.958984 0.5
vt 0.994141 0.5

# verts
v -2.5 -0.1 2.5
v -2.5 -0.1 -2.5
v -2.5 0.1 2.5
v -2.5 0.1 -2.5
v 2.5 -0.1 2.5
v 2.5 -0.1 -2.5
v 2.5 0.1 2.5
v 2.5 0.1 -2.5
v -2.5 -0.1 2.5
v -2.5 0.1 2.5
v 2.5 -0.1 2.5
v 2.5 0.1 2.5
v -2.5 -0.1 -2.5
v -2.5 0.1 -2.5
v 2.5 -0.1 -2.5
v 2.5 0.1 -2.5
v -2.5 -0.1 2.5
v 2.5 -0.1 2.5
v -2.5 -0.1 -2.5
v 2.5 -0.1 -2.5
v -2.5 0.1 2.5
v 2.5 0.1 2.5
v -2.4 0.1 2.4
v -1.8 0.1 2.4
v -1.2 0.1 2.4
v -0.6 0.1 2.4
v 0 0.1 2.4
v 0.6 0.1 2.4
v 1.2 0.1 2.4
v 1.8 0.1 2.4
v 2.4 0.1 2.4
v -2.4 0.1 1.8
v -1.8 0.1 1.8
v -1.2 0.1 1.8
v -0.6 0.1 1.8
v 0 0.1 1.8
v 0.6 0.1 1.8
v 1.2 0.1 1.8
v 1.8 0.1 1.8
v 2.4 0.1 1.8
v -2.4 0.1 1.2
v -1.8 0.1 1.2
v -1.2 0.1 1.2
v -0.6 0.1 1.2
v 0 0.1 1.2
v 0.6 0.1 1.2
v 1.2 0.1 1.2
v 1.8 0.1 1.2
v 2.4 0.1 1.2
v -2.4 0.1 0.6
v -1.8 0.1 0.6
v -1.2 0.1 0.6
v -0.6 0.1 0.6
v 0 0.1 0.6
v 0.6 0.1 0.6
v 1.2 0.1 0.6
v 1.8 0.1 0.6
v 2.4 0.1 0.6
v -2.4 0.1 0
v -1.8 0.1 0
v -1.2 0.1 0
v -0.6 0.1 0
v 0 0.1 0
v 0.6 0.1 0
v 1.2 0.1 0
v 1.8 0.1 0
v 2.4 0.1 0
v -2.4 0.1 -0.6
v -1.8 0.1 -0.6
v -1.2 0.1 -0.6
v -0.6 0.1 -0.6
v 0 0.1 -0.6
v 0.6 0.1 -0.6
v 1.2 0.1 -0.6
v 1.8 0.1 -0.6
v 2.4 0.1 -0.6
v -2.4 0.1 -1.2
v -1.8 0.1 -1.2
v -1.2 0.1 -1.2
v -0.6 0.1 -1.2
v 0 0.1 -1.2
v 0.6 0.1 -1.2
v 1.2 0.1 -1.2
v 1.8 0.1 -1.2
v 2.4 0.1 -1.2
v -2.4 0.1 -1.8
v -1.8 0.1 -1.8
v -1.2 0.1 -1.8
v -0.6 0.1 -1.8
v 0 0.1 -1.8
v 0.6 0.1 -1.8
v 1.2 0.1 -1.8
v 1.8 0.1 -1.8
v 2.4 0.1 -1.8
v -2.4 0.1 -2.4
v -1.8 0.1 -2.4
v -1.2 0.1 -2.4
v -0.6 0.1 -2.4
v 0 0.1 -2.4
v 0.6 0.1 -2.4
v 1.2 0.1 -2.4
v 1.8 0.1 -2.4
v 2.4 0.1 -2.4
v -2.5 0.1 -2.5
v 2.5 0.1 -2.5

# faces
f 3/1/1 2/1/1 1/1/1
f 4/1/1 2/1/1 3/1/1
f 5/1/2 6/1/2 7/1/2
f 7/1/2 6/1/2 8/1/2
f 11/1/3 10/1/3 9/1/3
f 12/1/3 10/1/3 11/1/3
f 13/1/4 14/1/4 15/1/4
f 15/1/4 14/1/4 16/1/4
f 19/1/5 18/1/5 17/1/5
f 20/1/5 18/1/5 19/1/5
f 21/1/6 22/1/6 23/1/6
f 23/1/6 22/1/6 24/1/6
f 24/1/6 22/1/6 25/1/6
f 25/1/6 22/1/6 26/1/6
f 26/1/6 22/1/6 27/1/6
f 27/1/6 22/1/6 28/1/6
f 28/1/6 22/1/6 29/1/6
f 29/1/6 22/1/6 30/1/6
f 30/1/6 22/1/6 31/1/6
f 21/1/6 23/1/6 32/1/6
f 23/2/6 24/2/6 32/2/6
f 24/3/6 25/3/6 33/3/6
f 32/2/6 24/2/6 33/2/6
f 25/2/6 26/2/6 34/2/6
f 33/3/6 25/3/6 34/3/6
f 26/3/6 27/3/6 35/3/6
f 34/2/6 26/2/6 35/2/6
f 27/2/6 28/2/6 36/2/6
f 35/3/6 27/3/6 36/3/6
f 28/3/6 29/3/6 37/3/6
f 36/2/6 28/2/6 37/2/6
f 29/2/6 30/2/6 38/2/6
f 37/3/6 29/3/6 38/3/6
f 30/3/6 31/3/6 39/3/6
f 38/2/6 30/2/6 39/2/6
f 31/1/6 22/1/6 40/1/6
f 39/3/6 31/3/6 40/3/6
f 21/1/6 32/1/6 41/1/6
f 32/3/6 33/3/6 41/3/6
f 33/2/6 34/2/6 42/2/6
f 41/3/6 33/3/6 42/3/6
f 34/3/6 35/3/6 43/3/6
f 42/2/6 34/2/6 43/2/6
f 35/2/6 36/2/6 44/2/6
f 43/3/6 35/3/6 44/3/6
f 36/3/6 37/3/6 45/3/6
f 44/2/6 36/2/6 45/2/6
f 37/2/6 38/2/6 46/2/6
f 45/3/6 37/3/6 46/3/6
f 38/3/6 39/3/6 47/3/6
f 46/2/6 38/2/6 47/2/6
f 39/2/6 40/2/6 48/2/6
f 47/3/6 39/3/6 48/3/6
f 40/1/6 22/1/6 49/1/6
f 48/2/6 40/2/6 49/2/6
f 21/1/6 41/1/6 50/1/6
f 41/2/6 42/2/6 50/2/6
f 42/3/6 43/3/6 51/3/6
f 50/2/6 42/2/6 51/2/6
f 43/2/6 44/2/6 52/2/6
f 51/3/6 43/3/6 52/3/6
f 44/3/6 45/3/6 53/3/6
f 52/2/6 44/2/6 53/2/6
f 45/2/6 46/2/6 54/2/6
f 53/3/6 45/3/6 54/3/6
f 46/3/6 47/3/6 55/3/6
f 54/2/6 46/2/6 55/2/6
f 47/2/6 48/2/6 56/2/6
f 55/3/6 47/3/6 56/3/6
f 48/3/6 49/3/6 57/3/6
f 56/2/6 48/2/6 57/2/6
f 49/1/6 22/1/6 58/1/6
f 57/3/6 49/3/6 58/3/6
f 21/1/6 50/1/6 59/1/6
f 50/3/6 51/3/6 59/3/6
f 51/2/6 52/2/6 60/2/6
f 59/3/6 51/3/6 60/3/6
f 52/3/6 53/3/6 61/3/6
f 60/2/6 52/2/6 61/2/6
f 53/2/6 54/2/6 62/2/6
f 61/3/6 53/3/6 62/3/6
f 54/3/6 55/3/6 63/3/6
f 62/2/6 54/2/6 63/2/6
f 55/2/6 56/2/6 64/2/6
f 63/3/6 55/3/6 64/3/6
f 56/3/6 57/3/6 65/3/6
f 64/2/6 56/2/6 65/2/6
f 57/2/6 58/2/6 66/2/6
f 65/3/6 57/3/6 66/3/6
f 58/1/6 22/1/6 67/1/6
f 66/2/6 58/2/6 67/2/6
f 59/2/6 60/2/6 68/2/6
f 21/1/6 59/1/6 68/1/6
f 60/3/6 61/3/6 69/3/6
f 68/2/6 60/2/6 69/2/6
f 61/2/6 62/2/6 70/2/6
f 69/3/6 61/3/6 70/3/6
f 62/3/6 63/3/6 71/3/6
f 70/2/6 62/2/6 71/2/6
f 63/2/6 64/2/6 72/2/6
f 71/3/6 63/3/6 72/3/6
f 64/3/6 65/3/6 73/3/6
f 72/2/6 64/2/6 73/2/6
f 65/2/6 66/2/6 74/2/6
f 73/3/6 65/3/6 74/3/6
f 66/3/6 67/3/6 75/3/6
f 74/2/6 66/2/6 75/2/6
f 67/1/6 22/1/6 76/1/6
f 75/3/6 67/3/6 76/3/6
f 68/3/6 69/3/6 77/3/6
f 21/1/6 68/1/6 77/1/6
f 69/2/6 70/2/6 78/2/6
f 77/3/6 69/3/6 78/3/6
f 70/3/6 71/3/6 79/3/6
f 78/2/6 70/2/6 79/2/6
f 71/2/6 72/2/6 80/2/6
f 79/3/6 71/3/6 80/3/6
f 72/3/6 73/3/6 81/3/6
f 80/2/6 72/2/6 81/2/6
f 73/2/6 74/2/6 82/2/6
f 81/3/6 73/3/6 82/3/6
f 74/3/6 75/3/6 83/3/6
f 82/2/6 74/2/6 83/2/6
f 75/2/6 76/2/6 84/2/6
f 83/3/6 75/3/6 84/3/6
f 76/1/6 22/1/6 85/1/6
f 84/2/6 76/2/6 85/2/6
f 77/2/6 78/2/6 86/2/6
f 21/1/6 77/1/6 86/1/6
f 78/3/6 79/3/6 87/3/6
f 86/2/6 78/2/6 87/2/6
f 79/2/6 80/2/6 88/2/6
f 87/3/6 79/3/6 88/3/6
f 80/3/6 81/3/6 89/3/6
f 88/2/6 80/2/6 89/2/6
f 81/2/6 82/2/6 90/2/6
f 89/3/6 81/3/6 90/3/6
f 82/3/6 83/3/6 91/3/6
f 90/2/6 82/2/6 91/2/6
f 83/2/6 84/2/6 92/2/6
f 91/3/6 83/3/6 92/3/6
f 84/3/6 85/3/6 93/3/6
f 92/2/6 84/2/6 93/2/6
f 85/1/6 22/1/6 94/1/6
f 93/3/6 85/3/6 94/3/6
f 86/3/6 87/3/6 95/3/6
f 21/1/6 86/1/6 95/1/6
f 87/2/6 88/2/6 96/2/6
f 95/3/6 87/3/6 96/3/6
f 88/3/6 89/3/6 97/3/6
f 96/2/6 88/2/6 97/2/6
f 89/2/6 90/2/6 98/2/6
f 97/3/6 89/3/6 98/3/6
f 90/3/6 91/3/6 99/3/6
f 98/2/6 90/2/6 99/2/6
f 91/2/6 92/2/6 100/2/6
f 99/3/6 91/3/6 100/3/6
f 92/3/6 93/3/6 101/3/6
f 100/2/6 92/2/6 101/2/6
f 93/2/6 94/2/6 102/2/6
f 101/3/6 93/3/6 102/3/6
f 94/1/6 22/1/6 103/1/6
f 102/2/6 94/2/6 103/2/6
f 95/1/6 96/1/6 104/1/6
f 21/1/6 95/1/6 104/1/6
f 102/1/6 103/1/6 104/1/6
f 100/1/6 101/1/6 104/1/6
f 101/1/6 102/1/6 104/1/6
f 98/1/6 99/1/6 104/1/6
f 99/1/6 100/1/6 104/1/6
f 96/1/6 97/1/6 104/1/6
f 97/1/6 98/1/6 104/1/6
f 103/1/6 22/1/6 105/1/6
f 104/1/6 103/1/6 105/1/6
